<svg xmlns="http://www.w3.org/2000/svg" width="198" height="44" viewBox="0 0 198 44">
  <g id="Group_11391" data-name="Group 11391" transform="translate(-159.59 -2553)">
    <rect id="Rectangle_6400" data-name="Rectangle 6400" width="198" height="44" transform="translate(159.59 2553)" fill="none"/>
    <g id="Group_11390" data-name="Group 11390" transform="translate(5641 -736)">
      <path id="Path_2641" data-name="Path 2641" d="M722.4,133.2h-.653c-7.722.3-11.286,6.712-11.286,12.534,0,7.069,4.1,11.583,11.286,12.058.416,0,.891.059,1.307.059a21.508,21.508,0,0,0,8.673-1.663l-1.247-4.811a19.024,19.024,0,0,1-6.356,1.01,10.414,10.414,0,0,1-2.376-.3c-2.316-.535-4.1-1.9-4.277-4.277h15.207a22.308,22.308,0,0,0,.237-2.851C732.91,139.081,730,133.2,722.4,133.2Zm-.653,9.623h-4.336c.178-1.9,1.425-4.633,4.336-4.752h.238c3.326,0,4.1,3.029,4.1,4.752Z" transform="translate(-6075.543 3175.088)" fill="#fff"/>
      <path id="Path_2642" data-name="Path 2642" d="M467.57,149.108c0,3.386-1.069,5.405-3.623,5.465-2.495-.059-3.564-2.079-3.564-5.465V136.4h-7.366v13.84c0,13.662,21.859,13.662,21.859,0V136.4H467.57Z" transform="translate(-5860.869 3172.427)" fill="#fff"/>
      <path id="Path_2643" data-name="Path 2643" d="M600.836,138.309A12.86,12.86,0,0,1,606,139.615l2.317-4.752A20.483,20.483,0,0,0,600.6,133.2c-5.881.119-9.623,3.327-9.623,7.782-.059,2.732,1.841,5.465,6.771,7.069,2.673.891,3.386,1.485,3.386,2.732,0,1.188-.891,1.9-3.089,1.9a14.076,14.076,0,0,1-6.356-1.723l-2.317,4.93c1.9,1.247,5.584,1.96,8.672,1.96,6.712,0,10.157-3.208,10.157-7.663-.059-3.386-1.9-5.7-6.356-7.247-2.911-1.01-3.8-1.544-3.8-2.732C598.044,139.081,599.054,138.309,600.836,138.309Z" transform="translate(-5974.56 3175.088)" fill="#fff"/>
      <path id="Path_2644" data-name="Path 2644" d="M871.924,143.417c0-5.584-2.495-10.217-10.336-10.217h-.178a20.366,20.366,0,0,0-9.623,2.317l1.96,4.514a13.435,13.435,0,0,1,6.534-1.723,6.828,6.828,0,0,1,1.129.059c2.614.3,3.148,1.842,3.148,2.97v.3c-1.069,0-2.138.059-3.148.119-6.534.713-10.692,3.564-10.692,8.851,0,3.8,2.851,7.247,7.662,7.247a10.093,10.093,0,0,0,3.03-.416,7.579,7.579,0,0,0,3.683-2.495h.178l.416,2.376h6.594a30.207,30.207,0,0,1-.356-5.7Zm-7.128,5.346a8.855,8.855,0,0,1-.119,1.247,4.136,4.136,0,0,1-3.267,2.673h-.535a2.621,2.621,0,0,1-2.911-2.792c0-1.9,1.366-2.911,3.445-3.386a14.964,14.964,0,0,1,3.386-.3Z" transform="translate(-6192.499 3175.088)" fill="#fff"/>
      <path id="Path_2645" data-name="Path 2645" d="M1002.781,150.415V136.4h-7.187v15.147c0,3.326.713,5.584,2.02,6.95a7.794,7.794,0,0,0,5.583,2.02,20.3,20.3,0,0,0,5.465-.713l-.95-5.465C1004.445,155.048,1002.781,154.216,1002.781,150.415Z" transform="translate(-6313.392 3172.427)" fill="#fff"/>
      <path id="Path_2646" data-name="Path 2646" d="M1088.359,150.415V136.4h-7.188v15.147c0,3.326.654,5.584,2.02,6.95a7.546,7.546,0,0,0,5.524,2.02,19.94,19.94,0,0,0,5.465-.713l-.951-5.465C1089.962,155.048,1088.359,154.216,1088.359,150.415Z" transform="translate(-6384.653 3172.427)" fill="#fff"/>
      <path id="Path_2647" data-name="Path 2647" d="M98.787,29.1a8.316,8.316,0,1,0-8.316-8.316A8.29,8.29,0,0,0,98.787,29.1Z" transform="translate(-5558.462 3276.53)" fill="#fff"/>
      <path id="Path_2648" data-name="Path 2648" d="M49,151.126c-3.564,0-7.6-6.89-10.217-9.682a14.689,14.689,0,0,0-10.751-4.633c-13.068,0-15.325,13.9-15.325,24.057h9.563c.119-4.4-.594-14.375,5.94-14.375,3.267,0,6.118,4.871,8.079,7.188,3.742,4.277,7.069,7.128,12.89,7.128,12.949,0,15.325-13.959,15.325-24.057H54.94C54.821,141.206,55.356,151.126,49,151.126Z" transform="translate(-5493.706 3172.131)" fill="#fff"/>
      <path id="Path_2649" data-name="Path 2649" d="M1156.357,137.643a3.891,3.891,0,0,0-2.911-1.247,4.158,4.158,0,0,0-4.1,4.158,4.057,4.057,0,0,0,4.1,4.1,4.158,4.158,0,0,0,4.158-4.1A3.892,3.892,0,0,0,1156.357,137.643Zm-.475,5.287a3.519,3.519,0,1,1,.951-2.376A3.531,3.531,0,0,1,1155.882,142.93Z" transform="translate(-6441.425 3172.822)" fill="#fff"/>
      <path id="Path_2650" data-name="Path 2650" d="M1167.173,149.9a3.3,3.3,0,0,0-.475-.356,1.562,1.562,0,0,0,.891-.416,1.257,1.257,0,0,0,.238-.832,1.581,1.581,0,0,0-.178-.713,1.6,1.6,0,0,0-.475-.416,4.426,4.426,0,0,0-1.069-.119h-1.841v4.4h.891V149.6h.178a3.349,3.349,0,0,1,.416.059,1.3,1.3,0,0,1,.3.178,5.223,5.223,0,0,0,.475.653l.653.951h1.01l-.535-.832A2.862,2.862,0,0,0,1167.173,149.9Zm-1.129-.95h-.891v-1.129h1.307a.962.962,0,0,1,.356.178.844.844,0,0,1,.119.356.751.751,0,0,1-.06.356,1.3,1.3,0,0,1-.3.178A3.281,3.281,0,0,1,1166.044,148.95Z" transform="translate(-6453.844 3163.959)" fill="#fff"/>
    </g>
  </g>
</svg>
