<svg xmlns="http://www.w3.org/2000/svg" width="27.236" height="28" viewBox="0 0 27.236 28">
  <path id="Icon_material-settings" data-name="Icon material-settings" d="M27.429,18.372a10.911,10.911,0,0,0,.1-1.372,10.911,10.911,0,0,0-.1-1.372l2.954-2.31a.706.706,0,0,0,.168-.9l-2.8-4.844A.7.7,0,0,0,26.9,7.27l-3.486,1.4A10.229,10.229,0,0,0,21.045,7.3l-.532-3.71A.683.683,0,0,0,19.827,3h-5.6a.683.683,0,0,0-.686.588L13.009,7.3A10.756,10.756,0,0,0,10.643,8.67L7.157,7.27a.683.683,0,0,0-.854.308L3.5,12.422a.69.69,0,0,0,.168.9l2.954,2.31A11.1,11.1,0,0,0,6.527,17a11.1,11.1,0,0,0,.1,1.372l-2.954,2.31a.706.706,0,0,0-.168.9l2.8,4.844a.7.7,0,0,0,.854.308l3.486-1.4A10.229,10.229,0,0,0,13.009,26.7l.532,3.71a.683.683,0,0,0,.686.588h5.6a.683.683,0,0,0,.686-.588l.532-3.71a10.756,10.756,0,0,0,2.366-1.372l3.486,1.4a.683.683,0,0,0,.854-.308l2.8-4.844a.706.706,0,0,0-.168-.9l-2.954-2.31ZM17.027,21.9a4.9,4.9,0,1,1,4.9-4.9A4.905,4.905,0,0,1,17.027,21.9Z" transform="translate(-3.406 -3)" fill="#7a7a7a"/>
</svg>
