<svg xmlns="http://www.w3.org/2000/svg" width="26.8" height="24.364" viewBox="0 0 26.8 24.364">
  <path id="Icon_material-thumb-up" data-name="Icon material-thumb-up" d="M1.5,25.864H6.373V11.245H1.5Zm26.8-13.4a2.444,2.444,0,0,0-2.436-2.436H18.177L19.334,4.46l.037-.39a1.834,1.834,0,0,0-.536-1.291L17.543,1.5,9.528,9.528a2.382,2.382,0,0,0-.719,1.718V23.427a2.444,2.444,0,0,0,2.436,2.436H22.209a2.42,2.42,0,0,0,2.241-1.486l3.679-8.588A2.407,2.407,0,0,0,28.3,14.9V12.573l-.012-.012Z" transform="translate(-1.5 -1.5)" fill="#7878ff"/>
</svg>
