<svg xmlns="http://www.w3.org/2000/svg" width="329" height="279.466" viewBox="0 0 329 279.466">
  <g id="logo-header" transform="translate(-1216 -178.058)">
    <path id="Path_2647" data-name="Path 2647" d="M143.291,118.112c29.052,0,52.444-23.77,52.444-52.821S172.343,12.47,143.291,12.47a52.821,52.821,0,0,0,0,105.642Z" transform="translate(1208.155 165.588)" fill="#5757ff"/>
    <path id="Path_2648" data-name="Path 2648" d="M243.233,228.056c-22.638,0-48.294-43.765-64.9-61.5-18.11-18.864-41.88-29.429-68.29-29.429-83,0-97.342,88.287-97.342,152.8H73.45c.755-27.92-3.773-91.305,37.729-91.305,20.751,0,38.862,30.938,51.313,45.653,23.769,27.165,44.9,45.276,81.872,45.276,82.251,0,97.342-88.664,97.342-152.8H280.962C280.208,165.048,283.6,228.056,243.233,228.056Z" transform="translate(1203.294 167.591)" fill="#5757ff"/>
  </g>
</svg>
