<svg xmlns="http://www.w3.org/2000/svg" width="23.452" height="23.44" viewBox="0 0 23.452 23.44">
  <path id="Path_1" data-name="Path 1" d="M13.1,20.283A6.859,6.859,0,1,1,20.283,13.1l-2.4-.72a4.572,4.572,0,1,0-5.5,5.5Zm11.766-6.849c0,.343-.011.686-.046,1.029l-2.253-.675c.011-.114.011-.24.011-.354a9.147,9.147,0,1,0-9.147,9.147c.114,0,.24,0,.354-.011l.675,2.252c-.343.034-.686.046-1.029.046A11.434,11.434,0,1,1,24.868,13.434ZM20.558,18.3l4.311-1.441-11.434-3.43,3.43,11.434,1.441-4.311,4.882,4.882,2.264-2.264Z" transform="translate(-2 -2)" fill="#7878ff"/>
</svg>
